<?xml version="1.0"?>
<svg xmlns="http://www.w3.org/2000/svg" viewBox="0 0 480 480" width="480" height="480">
  <mask id="strokeMask">
    <path d="M0,0 v480 h480 v-480 z" fill="white"/>
    <path d="M 240 176 L 304 240 L 240 304 L 176 240 M 208 144 L 144 208 L 112 176 A 45.254833995939045 45.254833995939045 0 0 1 176 112 M 336 208 L 272 144 L 304 112 A 45.254833995939045 45.254833995939045 0 0 1 368 176 M 272 336 L 336 272 L 368 304 A 45.254833995939045 45.254833995939045 0 0 1 304 368 M 144 272 L 208 336 L 176 368 A 45.254833995939045 45.254833995939045 0 0 1 112 304 z" fill="black"/>
  </mask>
  <g fill="black" mask="url(#strokeMask)">
    <path d="M 112 240 L 80 208 A 1 1 0 0 1 208 80 L 240 112 L 272 80 A 1 1 0 0 1 400 208 L 368 240 L 400 272 A 1 1 0 0 1 272 400 L 240 368 L 208 400 A 1 1 0 0 1 80 272 z"/>
  </g>
  <g fill="white">
    <path d="M 148.0 212.0 L 276 84 A 84.8528137423857 84.8528137423857 0 0 1 396 204 L 364.0 236.0 L 340.0 212.0 L 372 180 A 50.91168824543142 50.91168824543142 0 0 0 300 108 L 172.0 236.0 M 268.0 340.0 L 300 372 A 1 1 0 0 0 372 300 L 244.0 172.0 L 268.0 148.0 L 396 276 A 1 1 0 0 1 276 396 L 244.0 364.0 M 140.0 268.0 L 108 300 A 50.91168824543142 50.91168824543142 0 0 0 180 372 L 308.0 244.0 L 332.0 268.0 L 204 396 A 84.8528137423857 84.8528137423857 0 0 1 84 276 L 116.0 244.0 M 212.0 140.0 L 180 108 A 50.91168824543142 50.91168824543142 0 0 0 108 180 L 236.0 308.0 L 212.0 332.0 L 84 204 A 84.8528137423857 84.8528137423857 0 0 1 204 84 L 236.0 116.0 z"/>
  </g>
</svg>
