<?xml version="1.0"?>
<svg xmlns="http://www.w3.org/2000/svg" viewBox="0 0 832 704" width="832" height="704">
  <path d="M0,0 v704 h832 v-704 z" fill="#169B62"/>
  <mask id="strokeMask">
    <path d="M0,0 v704 h832 v-704 z" fill="white"/>
    <path d="M 160 132 L 188 160 L 160 188 L 132 160 M 288 132 L 316 160 L 288 188 L 260 160 M 416 132 L 444 160 L 416 188 L 388 160 M 544 132 L 572 160 L 544 188 L 516 160 M 672 132 L 700 160 L 672 188 L 644 160 M 224 196 L 252 224 L 224 252 L 196 224 M 352 196 L 380 224 L 352 252 L 324 224 M 480 196 L 508 224 L 480 252 L 452 224 M 608 196 L 636 224 L 608 252 L 580 224 M 160 260 L 188 288 L 160 316 L 132 288 M 288 260 L 316 288 L 288 316 L 260 288 M 416 260 L 444 288 L 416 316 L 388 288 M 544 260 L 572 288 L 544 316 L 516 288 M 672 260 L 700 288 L 672 316 L 644 288 M 224 324 L 252 352 L 224 380 L 196 352 M 352 324 L 380 352 L 352 380 L 324 352 M 480 324 L 508 352 L 480 380 L 452 352 M 608 324 L 636 352 L 608 380 L 580 352 M 160 388 L 188 416 L 160 444 L 132 416 M 288 388 L 316 416 L 288 444 L 260 416 M 416 388 L 444 416 L 416 444 L 388 416 M 544 388 L 572 416 L 544 444 L 516 416 M 672 388 L 700 416 L 672 444 L 644 416 M 224 452 L 252 480 L 224 508 L 196 480 M 352 452 L 380 480 L 352 508 L 324 480 M 480 452 L 508 480 L 480 508 L 452 480 M 608 452 L 636 480 L 608 508 L 580 480 M 160 516 L 188 544 L 160 572 L 132 544 M 288 516 L 316 544 L 288 572 L 260 544 M 416 516 L 444 544 L 416 572 L 388 544 M 544 516 L 572 544 L 544 572 L 516 544 M 672 516 L 700 544 L 672 572 L 644 544 M 124 96 L 96 124 L 82 110 A 19.79898987322333 19.79898987322333 0 0 1 110 82 M 252 96 L 224 124 L 196 96 L 210 82 A 19.79898987322333 19.79898987322333 0 0 1 238 82 M 380 96 L 352 124 L 324 96 L 338 82 A 19.79898987322333 19.79898987322333 0 0 1 366 82 M 508 96 L 480 124 L 452 96 L 466 82 A 19.79898987322333 19.79898987322333 0 0 1 494 82 M 636 96 L 608 124 L 580 96 L 594 82 A 19.79898987322333 19.79898987322333 0 0 1 622 82 M 736 124 L 708 96 L 722 82 A 19.79898987322333 19.79898987322333 0 0 1 750 110 M 736 252 L 708 224 L 736 196 L 750 210 A 19.79898987322333 19.79898987322333 0 0 1 750 238 M 736 380 L 708 352 L 736 324 L 750 338 A 19.79898987322333 19.79898987322333 0 0 1 750 366 M 736 508 L 708 480 L 736 452 L 750 466 A 19.79898987322333 19.79898987322333 0 0 1 750 494 M 708 608 L 736 580 L 750 594 A 19.79898987322333 19.79898987322333 0 0 1 722 622 M 580 608 L 608 580 L 636 608 L 622 622 A 19.79898987322333 19.79898987322333 0 0 1 594 622 M 452 608 L 480 580 L 508 608 L 494 622 A 19.79898987322333 19.79898987322333 0 0 1 466 622 M 324 608 L 352 580 L 380 608 L 366 622 A 19.79898987322333 19.79898987322333 0 0 1 338 622 M 196 608 L 224 580 L 252 608 L 238 622 A 19.79898987322333 19.79898987322333 0 0 1 210 622 M 96 580 L 124 608 L 110 622 A 19.79898987322333 19.79898987322333 0 0 1 82 594 M 96 452 L 124 480 L 96 508 L 82 494 A 19.79898987322333 19.79898987322333 0 0 1 82 466 M 96 324 L 124 352 L 96 380 L 82 366 A 19.79898987322333 19.79898987322333 0 0 1 82 338 M 96 196 L 124 224 L 96 252 L 82 238 A 19.79898987322333 19.79898987322333 0 0 1 82 210 z" fill="black"/>
  </mask>
  <g fill="white" mask="url(#strokeMask)">
    <path d="M 60 160 L 46 146 A 1 1 0 0 1 146 46 L 160 60 L 174 46 A 70.71067811865476 70.71067811865476 0 0 1 274 46 L 288 60 L 302 46 A 70.71067811865476 70.71067811865476 0 0 1 402 46 L 416 60 L 430 46 A 70.71067811865476 70.71067811865476 0 0 1 530 46 L 544 60 L 558 46 A 70.71067811865476 70.71067811865476 0 0 1 658 46 L 672 60 L 686 46 A 1 1 0 0 1 786 146 L 772 160 L 786 174 A 70.71067811865476 70.71067811865476 0 0 1 786 274 L 772 288 L 786 302 A 70.71067811865476 70.71067811865476 0 0 1 786 402 L 772 416 L 786 430 A 70.71067811865476 70.71067811865476 0 0 1 786 530 L 772 544 L 786 558 A 1 1 0 0 1 686 658 L 672 644 L 658 658 A 70.71067811865476 70.71067811865476 0 0 1 558 658 L 544 644 L 530 658 A 70.71067811865476 70.71067811865476 0 0 1 430 658 L 416 644 L 402 658 A 70.71067811865476 70.71067811865476 0 0 1 302 658 L 288 644 L 274 658 A 70.71067811865476 70.71067811865476 0 0 1 174 658 L 160 644 L 146 658 A 1 1 0 0 1 46 558 L 60 544 L 46 530 A 70.71067811865476 70.71067811865476 0 0 1 46 430 L 60 416 L 46 402 A 70.71067811865476 70.71067811865476 0 0 1 46 302 L 60 288 L 46 274 A 70.71067811865476 70.71067811865476 0 0 1 46 174 z"/>
  </g>
  <g fill="#FF883E">
    <path d="M 194.0 98.0 L 286.0 190.0 L 254.0 222.0 L 162.0 130.0 M 322.0 98.0 L 414.0 190.0 L 382.0 222.0 L 290.0 130.0 M 450.0 98.0 L 542.0 190.0 L 510.0 222.0 L 418.0 130.0 M 578.0 98.0 L 670.0 190.0 L 638.0 222.0 L 546.0 130.0 M 194.0 226.0 L 286.0 318.0 L 254.0 350.0 L 162.0 258.0 M 322.0 226.0 L 414.0 318.0 L 382.0 350.0 L 290.0 258.0 M 450.0 226.0 L 542.0 318.0 L 510.0 350.0 L 418.0 258.0 M 578.0 226.0 L 670.0 318.0 L 638.0 350.0 L 546.0 258.0 M 194.0 354.0 L 286.0 446.0 L 254.0 478.0 L 162.0 386.0 M 322.0 354.0 L 414.0 446.0 L 382.0 478.0 L 290.0 386.0 M 450.0 354.0 L 542.0 446.0 L 510.0 478.0 L 418.0 386.0 M 578.0 354.0 L 670.0 446.0 L 638.0 478.0 L 546.0 386.0 M 194.0 482.0 L 286.0 574.0 L 254.0 606.0 L 162.0 514.0 M 322.0 482.0 L 414.0 574.0 L 382.0 606.0 L 290.0 514.0 M 450.0 482.0 L 542.0 574.0 L 510.0 606.0 L 418.0 514.0 M 578.0 482.0 L 670.0 574.0 L 638.0 606.0 L 546.0 514.0 M 130.0 286.0 L 222.0 194.0 L 190.0 162.0 L 98.0 254.0 M 258.0 286.0 L 350.0 194.0 L 318.0 162.0 L 226.0 254.0 M 386.0 286.0 L 478.0 194.0 L 446.0 162.0 L 354.0 254.0 M 514.0 286.0 L 606.0 194.0 L 574.0 162.0 L 482.0 254.0 M 642.0 286.0 L 734.0 194.0 L 702.0 162.0 L 610.0 254.0 M 130.0 414.0 L 222.0 322.0 L 190.0 290.0 L 98.0 382.0 M 258.0 414.0 L 350.0 322.0 L 318.0 290.0 L 226.0 382.0 M 386.0 414.0 L 478.0 322.0 L 446.0 290.0 L 354.0 382.0 M 514.0 414.0 L 606.0 322.0 L 574.0 290.0 L 482.0 382.0 M 642.0 414.0 L 734.0 322.0 L 702.0 290.0 L 610.0 382.0 M 130.0 542.0 L 222.0 450.0 L 190.0 418.0 L 98.0 510.0 M 258.0 542.0 L 350.0 450.0 L 318.0 418.0 L 226.0 510.0 M 386.0 542.0 L 478.0 450.0 L 446.0 418.0 L 354.0 510.0 M 514.0 542.0 L 606.0 450.0 L 574.0 418.0 L 482.0 510.0 M 642.0 542.0 L 734.0 450.0 L 702.0 418.0 L 610.0 510.0 M 254.0 94.0 L 240 80 A 22.627416997969522 22.627416997969522 0 0 0 208 80 L 130.0 158.0 L 98.0 126.0 L 176 48 A 67.88225099390856 67.88225099390856 0 0 1 272 48 L 286.0 62.0 M 382.0 94.0 L 368 80 A 22.627416997969522 22.627416997969522 0 0 0 336 80 L 258.0 158.0 L 226.0 126.0 L 304 48 A 67.88225099390856 67.88225099390856 0 0 1 400 48 L 414.0 62.0 M 510.0 94.0 L 496 80 A 22.627416997969522 22.627416997969522 0 0 0 464 80 L 386.0 158.0 L 354.0 126.0 L 432 48 A 67.88225099390856 67.88225099390856 0 0 1 528 48 L 542.0 62.0 M 638.0 94.0 L 624 80 A 22.627416997969522 22.627416997969522 0 0 0 592 80 L 514.0 158.0 L 482.0 126.0 L 560 48 A 67.88225099390856 67.88225099390856 0 0 1 656 48 L 670.0 62.0 M 610.0 126.0 L 688 48 A 67.88225099390856 67.88225099390856 0 0 1 784 144 L 770.0 158.0 L 738.0 126.0 L 752 112 A 22.627416997969522 22.627416997969522 0 0 0 720 80 L 642.0 158.0 M 706.0 98.0 L 784 176 A 67.88225099390856 67.88225099390856 0 0 1 784 272 L 770.0 286.0 L 738.0 254.0 L 752 240 A 22.627416997969522 22.627416997969522 0 0 0 752 208 L 674.0 130.0 M 706.0 226.0 L 784 304 A 67.88225099390856 67.88225099390856 0 0 1 784 400 L 770.0 414.0 L 738.0 382.0 L 752 368 A 22.627416997969522 22.627416997969522 0 0 0 752 336 L 674.0 258.0 M 706.0 354.0 L 784 432 A 67.88225099390856 67.88225099390856 0 0 1 784 528 L 770.0 542.0 L 738.0 510.0 L 752 496 A 22.627416997969522 22.627416997969522 0 0 0 752 464 L 674.0 386.0 M 706.0 610.0 L 720 624 A 1 1 0 0 0 752 592 L 674.0 514.0 L 706.0 482.0 L 784 560 A 1 1 0 0 1 688 656 L 674.0 642.0 M 194.0 610.0 L 208 624 A 22.627416997969522 22.627416997969522 0 0 0 240 624 L 318.0 546.0 L 350.0 578.0 L 272 656 A 67.88225099390856 67.88225099390856 0 0 1 176 656 L 162.0 642.0 M 322.0 610.0 L 336 624 A 22.627416997969522 22.627416997969522 0 0 0 368 624 L 446.0 546.0 L 478.0 578.0 L 400 656 A 67.88225099390856 67.88225099390856 0 0 1 304 656 L 290.0 642.0 M 450.0 610.0 L 464 624 A 22.627416997969522 22.627416997969522 0 0 0 496 624 L 574.0 546.0 L 606.0 578.0 L 528 656 A 67.88225099390856 67.88225099390856 0 0 1 432 656 L 418.0 642.0 M 578.0 610.0 L 592 624 A 22.627416997969522 22.627416997969522 0 0 0 624 624 L 702.0 546.0 L 734.0 578.0 L 656 656 A 67.88225099390856 67.88225099390856 0 0 1 560 656 L 546.0 642.0 M 94.0 578.0 L 80 592 A 22.627416997969522 22.627416997969522 0 0 0 112 624 L 190.0 546.0 L 222.0 578.0 L 144 656 A 67.88225099390856 67.88225099390856 0 0 1 48 560 L 62.0 546.0 M 94.0 194.0 L 80 208 A 22.627416997969522 22.627416997969522 0 0 0 80 240 L 158.0 318.0 L 126.0 350.0 L 48 272 A 67.88225099390856 67.88225099390856 0 0 1 48 176 L 62.0 162.0 M 94.0 322.0 L 80 336 A 22.627416997969522 22.627416997969522 0 0 0 80 368 L 158.0 446.0 L 126.0 478.0 L 48 400 A 67.88225099390856 67.88225099390856 0 0 1 48 304 L 62.0 290.0 M 94.0 450.0 L 80 464 A 22.627416997969522 22.627416997969522 0 0 0 80 496 L 158.0 574.0 L 126.0 606.0 L 48 528 A 67.88225099390856 67.88225099390856 0 0 1 48 432 L 62.0 418.0 M 126.0 94.0 L 112 80 A 22.627416997969522 22.627416997969522 0 0 0 80 112 L 158.0 190.0 L 126.0 222.0 L 48 144 A 67.88225099390856 67.88225099390856 0 0 1 144 48 L 158.0 62.0 z"/>
  </g>
</svg>
