<?xml version="1.0"?>
<svg xmlns="http://www.w3.org/2000/svg" viewBox="0 0 864 672" width="864" height="672">
  <path d="M0,0 v672 h864 v-672 z" fill="#012169"/>
  <mask id="strokeMask">
    <path d="M0,0 v672 h864 v-672 z" fill="white"/>
    <path d="M 240 192 L 288 240 L 240 288 L 192 240 M 432 192 L 480 240 L 432 288 L 384 240 M 624 192 L 672 240 L 624 288 L 576 240 M 240 384 L 288 432 L 240 480 L 192 432 M 432 384 L 480 432 L 432 480 L 384 432 M 624 384 L 672 432 L 624 480 L 576 432 M 336 288 L 384 336 L 336 384 L 288 336 M 528 288 L 576 336 L 528 384 L 480 336 M 192 144 L 144 192 L 120 168 A 33.94112549695428 33.94112549695428 0 0 1 168 120 M 384 144 L 336 192 L 288 144 L 312 120 A 33.94112549695428 33.94112549695428 0 0 1 360 120 M 576 144 L 528 192 L 480 144 L 504 120 A 33.94112549695428 33.94112549695428 0 0 1 552 120 M 720 192 L 672 144 L 696 120 A 33.94112549695428 33.94112549695428 0 0 1 744 168 M 720 384 L 672 336 L 720 288 L 744 312 A 33.94112549695428 33.94112549695428 0 0 1 744 360 M 672 528 L 720 480 L 744 504 A 33.94112549695428 33.94112549695428 0 0 1 696 552 M 480 528 L 528 480 L 576 528 L 552 552 A 33.94112549695428 33.94112549695428 0 0 1 504 552 M 288 528 L 336 480 L 384 528 L 360 552 A 33.94112549695428 33.94112549695428 0 0 1 312 552 M 144 480 L 192 528 L 168 552 A 33.94112549695428 33.94112549695428 0 0 1 120 504 M 144 288 L 192 336 L 144 384 L 120 360 A 33.94112549695428 33.94112549695428 0 0 1 120 312 z" fill="black"/>
  </mask>
  <g fill="white" mask="url(#strokeMask)">
    <path d="M 96 240 L 72 216 A 1 1 0 0 1 216 72 L 240 96 L 264 72 A 101.82337649086284 101.82337649086284 0 0 1 408 72 L 432 96 L 456 72 A 101.82337649086284 101.82337649086284 0 0 1 600 72 L 624 96 L 648 72 A 1 1 0 0 1 792 216 L 768 240 L 792 264 A 101.82337649086284 101.82337649086284 0 0 1 792 408 L 768 432 L 792 456 A 1 1 0 0 1 648 600 L 624 576 L 600 600 A 101.82337649086284 101.82337649086284 0 0 1 456 600 L 432 576 L 408 600 A 101.82337649086284 101.82337649086284 0 0 1 264 600 L 240 576 L 216 600 A 1 1 0 0 1 72 456 L 96 432 L 72 408 A 101.82337649086284 101.82337649086284 0 0 1 72 264 z"/>
  </g>
  <g fill="#C8102E">
    <path d="M 280.0 152.0 L 424.0 296.0 L 392.0 328.0 L 248.0 184.0 M 472.0 152.0 L 616.0 296.0 L 584.0 328.0 L 440.0 184.0 M 280.0 344.0 L 424.0 488.0 L 392.0 520.0 L 248.0 376.0 M 472.0 344.0 L 616.0 488.0 L 584.0 520.0 L 440.0 376.0 M 184.0 424.0 L 328.0 280.0 L 296.0 248.0 L 152.0 392.0 M 376.0 424.0 L 520.0 280.0 L 488.0 248.0 L 344.0 392.0 M 568.0 424.0 L 712.0 280.0 L 680.0 248.0 L 536.0 392.0 M 392.0 136.0 L 368 112 A 45.254833995939045 45.254833995939045 0 0 0 304 112 L 184.0 232.0 L 152.0 200.0 L 272 80 A 90.50966799187809 90.50966799187809 0 0 1 400 80 L 424.0 104.0 M 584.0 136.0 L 560 112 A 45.254833995939045 45.254833995939045 0 0 0 496 112 L 376.0 232.0 L 344.0 200.0 L 464 80 A 90.50966799187809 90.50966799187809 0 0 1 592 80 L 616.0 104.0 M 536.0 200.0 L 656 80 A 90.50966799187809 90.50966799187809 0 0 1 784 208 L 760.0 232.0 L 728.0 200.0 L 752 176 A 45.254833995939045 45.254833995939045 0 0 0 688 112 L 568.0 232.0 M 664.0 152.0 L 784 272 A 90.50966799187809 90.50966799187809 0 0 1 784 400 L 760.0 424.0 L 728.0 392.0 L 752 368 A 45.254833995939045 45.254833995939045 0 0 0 752 304 L 632.0 184.0 M 664.0 536.0 L 688 560 A 1 1 0 0 0 752 496 L 632.0 376.0 L 664.0 344.0 L 784 464 A 1 1 0 0 1 656 592 L 632.0 568.0 M 280.0 536.0 L 304 560 A 45.254833995939045 45.254833995939045 0 0 0 368 560 L 488.0 440.0 L 520.0 472.0 L 400 592 A 90.50966799187809 90.50966799187809 0 0 1 272 592 L 248.0 568.0 M 472.0 536.0 L 496 560 A 45.254833995939045 45.254833995939045 0 0 0 560 560 L 680.0 440.0 L 712.0 472.0 L 592 592 A 90.50966799187809 90.50966799187809 0 0 1 464 592 L 440.0 568.0 M 136.0 472.0 L 112 496 A 45.254833995939045 45.254833995939045 0 0 0 176 560 L 296.0 440.0 L 328.0 472.0 L 208 592 A 90.50966799187809 90.50966799187809 0 0 1 80 464 L 104.0 440.0 M 136.0 280.0 L 112 304 A 45.254833995939045 45.254833995939045 0 0 0 112 368 L 232.0 488.0 L 200.0 520.0 L 80 400 A 90.50966799187809 90.50966799187809 0 0 1 80 272 L 104.0 248.0 M 200.0 136.0 L 176 112 A 45.254833995939045 45.254833995939045 0 0 0 112 176 L 232.0 296.0 L 200.0 328.0 L 80 208 A 90.50966799187809 90.50966799187809 0 0 1 208 80 L 232.0 104.0 z"/>
  </g>
</svg>
